<svg xmlns="http://www.w3.org/2000/svg" version="1.1" xmlns:xlink="http://www.w3.org/1999/xlink" xmlns:svgjs="http://svgjs.dev/svgjs" width="2000" height="1401" viewBox="0 0 2000 1401"><g transform="matrix(1,0,0,1,-0.5421294754220298,-2.25967741935483)"><svg viewBox="0 0 354 248" data-background-color="#f1ede4" preserveAspectRatio="xMidYMid meet" height="1401" width="2000" xmlns="http://www.w3.org/2000/svg" xmlns:xlink="http://www.w3.org/1999/xlink"><g id="tight-bounds" transform="matrix(1,0,0,1,0.09595691714969234,0.4000000000000057)"><svg viewBox="0 0 353.8080861657006 247.2" height="247.2" width="353.8080861657006"><g><svg viewBox="0 0 635.0316625361303 443.6863743849322" height="247.2" width="353.8080861657006"><g transform="matrix(1,0,0,1,0,137.1055297469099)"><svg viewBox="0 0 395.52 169.4753148911124" height="169.4753148911124" width="395.52"><g id="textblocktransform"><svg viewBox="0 0 395.52 169.4753148911124" height="169.4753148911124" width="395.52" id="textblock"><g><svg viewBox="0 0 395.52 169.4753148911124" height="169.4753148911124" width="395.52"><g transform="matrix(1,0,0,1,0,0)"><svg width="395.52" viewBox="1.6 -35.7 84.95 36.400000000000006" height="169.4753148911124" data-palette-color="#864622"><path d="M16 0.7L1.6-35 5.25-35 17.5-4.4 17.8-4.4 25.8-24.2 21.45-35 25.1-35 37.3-4.5 37.6-4.5 47.7-35 51.35-35 36.95 0.7 35.85 0.7 26.5-22.55 17.1 0.7 16 0.7ZM86.25-4.3L86.55-4.3 86.25-1.25Q84.85-0.65 82.85-0.2 80.85 0.25 78.8 0.48 76.75 0.7 75.15 0.7L75.15 0.7Q71.1 0.7 67.65-0.68 64.2-2.05 61.62-4.5 59.05-6.95 57.6-10.28 56.15-13.6 56.15-17.5L56.15-17.5Q56.15-21.4 57.6-24.73 59.05-28.05 61.62-30.5 64.2-32.95 67.65-34.33 71.1-35.7 75.15-35.7L75.15-35.7Q76.8-35.7 78.85-35.45 80.9-35.2 82.85-34.77 84.8-34.35 86.15-33.8L86.15-33.8 85.9-31 85.6-31Q83.75-32.7 80.95-33.6 78.15-34.5 75.15-34.5L75.15-34.5Q70.65-34.5 67.22-32.38 63.8-30.25 61.87-26.43 59.95-22.6 59.95-17.5L59.95-17.5Q59.95-12.35 61.87-8.55 63.8-4.75 67.2-2.63 70.6-0.5 75.15-0.5L75.15-0.5Q78.55-0.5 81.47-1.6 84.4-2.7 86.25-4.3L86.25-4.3Z" opacity="1" transform="matrix(1,0,0,1,0,0)" fill="#864622" class="wordmark-text-0" data-fill-palette-color="primary" id="text-0"></path></svg></g></svg></g></svg></g></svg></g><g transform="matrix(1,0,0,1,435.52905443823425,0)"><svg viewBox="0 0 199.5026080978961 443.6863743849322" height="443.6863743849322" width="199.5026080978961"><g><svg xmlns="http://www.w3.org/2000/svg" xmlns:xlink="http://www.w3.org/1999/xlink" version="1.1" x="0" y="0" viewBox="28.51622258490888 1.082 43.46655483018224 96.668" enable-background="new 0 0 100 100" xml:space="preserve" height="443.6863743849322" width="199.5026080978961" class="icon-icon-0" data-fill-palette-color="accent" id="icon-0"><path fill="#cf8e56" d="M71.56 16.833C71.321 16.678 71.13 16.726 70.685 16.754 70.386 16.773 69.983 16.799 69.502 16.799 66.42 16.799 63.911 15.696 62.083 13.574 61.889 13.276 57.289 6.272 53.416 5.502L52.818 5.383V6.985L52.93 7.123C53.003 7.213 53.093 7.34 53.152 7.44L53.131 7.54C53.064 7.851 53.264 8.045 53.496 8.269 54.04 8.797 55.174 9.896 54.459 11.734L54.191 12.539 54.436 12.758C54.939 13.209 56.224 14.621 56.124 15.731 56.085 16.167 55.827 16.525 55.337 16.827 54.556 17.306 53.972 17.358 53.534 16.913 53.064 16.435 52.878 15.551 52.84 15.166H53.816V13.016H51.819C51.546 12.331 51.349 11.643 51.342 11.34 51.554 11.25 51.784 11.044 51.935 10.593 52.226 9.724 52.155 8.006 51.433 7.086 51.523 4.993 51.405 4.246 51.249 3.94L51.289 3.815C51.456 3.276 51.847 2.013 50.501 1.227L50.25 1.082 49.998 1.229C48.651 2.016 49.042 3.278 49.209 3.817L49.249 3.942C49.094 4.249 48.978 4.996 49.066 7.086 48.343 8.006 48.272 9.724 48.562 10.593 48.713 11.044 48.943 11.251 49.156 11.341 49.15 11.644 48.954 12.332 48.68 13.016H46.68V15.166H47.658C47.619 15.551 47.431 16.437 46.962 16.914 46.526 17.356 45.942 17.305 45.162 16.827 44.671 16.525 44.413 16.167 44.374 15.731 44.274 14.626 45.559 13.21 46.062 12.757L46.305 12.539 46.032 11.71C45.324 9.896 46.458 8.797 47.004 8.27 47.235 8.045 47.436 7.852 47.369 7.541L47.344 7.447C47.4 7.351 47.487 7.224 47.568 7.123L47.68 6.985V5.383L47.082 5.502C43.211 6.272 38.61 13.276 38.456 13.522 36.589 15.697 34.08 16.799 30.998 16.799 30.517 16.799 30.113 16.773 29.814 16.754 29.368 16.724 29.178 16.677 28.939 16.833 28.553 17.085 28.463 17.572 28.543 17.918 28.613 18.222 28.811 18.44 29.067 18.506 29.316 18.654 30.197 19.416 30.675 19.845V61.505H69.735V21.871L69.803 19.864C70.462 19.274 71.214 18.637 71.433 18.507 71.69 18.441 71.886 18.222 71.956 17.919 72.036 17.573 71.946 17.086 71.56 16.833M35.162 38.701C35.162 30.488 42.172 23.806 50.789 23.806 59.404 23.806 66.414 30.488 66.414 38.701S59.404 53.595 50.789 53.595C42.172 53.595 35.162 46.914 35.162 38.701" data-fill-palette-color="accent"></path><path fill="#cf8e56" d="M50.83 28.796C44.905 28.796 40.084 33.408 40.084 39.076S44.905 49.356 50.83 49.356 61.576 44.745 61.576 39.076 56.756 28.796 50.83 28.796M50.83 48.356C45.456 48.356 41.084 44.193 41.084 39.076S45.456 29.796 50.83 29.796 60.576 33.959 60.576 39.076 56.204 48.356 50.83 48.356" data-fill-palette-color="accent"></path><g fill="#cf8e56" data-fill-palette-color="accent"><path fill="#cf8e56" d="M56.779 29.286C56.671 29.247 56.6 29.207 56.569 29.163S56.534 29.062 56.559 28.992L57.48 26.388C57.511 26.298 57.552 26.248 57.603 26.237A0.5 0.5 0 0 1 57.842 26.279L57.886 26.154 56.83 25.78 56.786 25.905A0.5 0.5 0 0 1 56.999 26.023C57.03 26.064 57.031 26.128 57 26.218L56.079 28.822C56.054 28.892 56.016 28.934 55.965 28.948 55.912 28.964 55.832 28.95 55.723 28.912L55.679 29.037 56.736 29.411z" data-fill-palette-color="accent"></path><path fill="#cf8e56" d="M60.759 33.704L60.875 33.629C60.809 33.527 60.775 33.448 60.777 33.392S60.812 33.287 60.879 33.244L63.297 31.668C63.381 31.613 63.447 31.598 63.496 31.621S63.602 31.707 63.669 31.809L63.785 31.733 63.144 30.751 62.504 29.77 62.388 29.846A0.5 0.5 0 0 1 62.49 30.078C62.491 30.133 62.45 30.187 62.367 30.242L59.947 31.818C59.883 31.861 59.824 31.871 59.771 31.85 59.72 31.829 59.66 31.768 59.594 31.667L59.478 31.742 60.119 32.723zM60.238 32.261L62.657 30.685C62.74 30.63 62.807 30.616 62.855 30.639S62.962 30.724 63.029 30.826C63.094 30.927 63.129 31.005 63.129 31.059 63.131 31.113 63.09 31.167 63.007 31.222L60.588 32.798C60.523 32.841 60.463 32.851 60.412 32.831 60.359 32.81 60.301 32.748 60.234 32.647 60.168 32.545 60.136 32.466 60.138 32.411S60.173 32.304 60.238 32.261" data-fill-palette-color="accent"></path><path fill="#cf8e56" d="M65.408 37.261A0.45 0.45 0 0 1 65.371 37.479C65.347 37.519 65.291 37.539 65.205 37.539H62.694C62.626 37.539 62.578 37.519 62.55 37.479 62.523 37.438 62.508 37.366 62.508 37.261H62.388V40.318H62.508C62.508 40.213 62.523 40.14 62.55 40.1S62.625 40.039 62.694 40.039H65.205C65.291 40.039 65.347 40.06 65.371 40.1S65.408 40.213 65.408 40.318H65.529V37.261zM65.371 39.517C65.347 39.557 65.291 39.577 65.205 39.577H62.694C62.626 39.577 62.578 39.557 62.55 39.517 62.523 39.476 62.508 39.404 62.508 39.299S62.523 39.121 62.55 39.081 62.625 39.021 62.694 39.021H65.205C65.291 39.021 65.347 39.041 65.371 39.081S65.408 39.194 65.408 39.299 65.396 39.477 65.371 39.517M65.371 38.498C65.347 38.538 65.291 38.558 65.205 38.558H62.694C62.626 38.558 62.578 38.538 62.55 38.498 62.523 38.457 62.508 38.385 62.508 38.28S62.523 38.102 62.55 38.062 62.625 38.002 62.694 38.002H65.205C65.291 38.002 65.347 38.022 65.371 38.062S65.408 38.175 65.408 38.28 65.396 38.458 65.371 38.498" data-fill-palette-color="accent"></path><path fill="#cf8e56" d="M58.199 50.959C58.151 50.953 58.098 50.916 58.04 50.849L55.985 48.699 55.859 48.758 56.091 51.756A0.44 0.44 0 0 1 56.066 51.953C56.045 51.99 55.999 52.025 55.925 52.059L55.976 52.167 56.691 51.834 56.64 51.726A0.6 0.6 0 0 1 56.406 51.794C56.367 51.795 56.34 51.776 56.322 51.739A0.2 0.2 0 0 1 56.302 51.657L56.109 49.447 57.621 51.043A0.3 0.3 0 0 1 57.662 51.105C57.682 51.146 57.678 51.181 57.653 51.211A0.6 0.6 0 0 1 57.454 51.346L57.505 51.453 58.429 51.023 58.378 50.914A0.33 0.33 0 0 1 58.199 50.959" data-fill-palette-color="accent"></path><path fill="#cf8e56" d="M39.039 40.829C39.066 40.87 39.081 40.942 39.081 41.047H39.201V40.028H39.081C39.081 40.133 39.066 40.206 39.039 40.246S38.964 40.306 38.895 40.306H36.384C36.298 40.306 36.242 40.286 36.218 40.246S36.181 40.133 36.181 40.028H36.06V41.047H36.181A0.45 0.45 0 0 1 36.218 40.829C36.242 40.789 36.298 40.769 36.384 40.769H38.895C38.964 40.769 39.012 40.789 39.039 40.829" data-fill-palette-color="accent"></path><path fill="#cf8e56" d="M36.223 39.787A0.6 0.6 0 0 1 36.385 39.657L37.738 38.786 38.896 39.657C38.958 39.713 39.004 39.756 39.035 39.787S39.082 39.867 39.082 39.935H39.202V39.148H39.082C39.082 39.29 39.066 39.382 39.035 39.426 39.019 39.447 39.001 39.458 38.977 39.458S38.927 39.447 38.896 39.426L37.905 38.666 38.896 37.971A0.13 0.13 0 0 1 38.97 37.941C38.996 37.941 39.018 37.956 39.034 37.985 39.065 38.037 39.081 38.125 39.081 38.249H39.201V37.23H39.081C39.081 37.298 39.063 37.349 39.03 37.383A3 3 0 0 1 38.895 37.508L37.57 38.407 36.384 37.508A0.8 0.8 0 0 1 36.222 37.374 0.23 0.23 0 0 1 36.181 37.23H36.06V38.018H36.181C36.181 37.901 36.198 37.811 36.232 37.749 36.251 37.716 36.273 37.7 36.299 37.7 36.323 37.7 36.352 37.713 36.384 37.74L37.404 38.527 36.384 39.194A0.17 0.17 0 0 1 36.296 39.224C36.267 39.224 36.243 39.209 36.227 39.18A0.55 0.55 0 0 1 36.181 38.916H36.06V39.935H36.181A0.24 0.24 0 0 1 36.223 39.787" data-fill-palette-color="accent"></path><path fill="#cf8e56" d="M64.215 44.403C64.172 44.423 64.115 44.408 64.043 44.36L61.961 42.959C61.904 42.921 61.875 42.877 61.875 42.829 61.875 42.78 61.902 42.712 61.961 42.625L61.861 42.558 61.293 43.403 60.725 44.249 60.211 45.014 59.643 45.86 59.743 45.927C59.802 45.84 59.854 45.787 59.899 45.77 59.944 45.752 59.995 45.762 60.051 45.8L62.134 47.201C62.205 47.249 62.24 47.297 62.238 47.344A0.45 0.45 0 0 1 62.147 47.545L62.248 47.613 62.816 46.767 63.384 45.922 63.898 45.157 64.466 44.312 64.366 44.244C64.309 44.33 64.259 44.383 64.215 44.403M62.717 46.698C62.658 46.785 62.608 46.839 62.564 46.858 62.522 46.878 62.464 46.863 62.393 46.815L60.31 45.414C60.253 45.376 60.225 45.332 60.224 45.284A0.4 0.4 0 0 1 60.311 45.08C60.37 44.993 60.422 44.94 60.467 44.923 60.512 44.905 60.563 44.915 60.619 44.953L62.703 46.354C62.773 46.402 62.808 46.45 62.807 46.497S62.775 46.611 62.717 46.698M63.248 45.892A0.4 0.4 0 0 1 63.133 46.014C63.09 46.034 63.033 46.019 62.961 45.971L60.879 44.57C60.822 44.532 60.793 44.488 60.793 44.44 60.793 44.401 60.825 44.342 60.86 44.28A0.4 0.4 0 0 1 60.98 44.159C61.025 44.141 61.076 44.151 61.132 44.189L63.215 45.59C63.286 45.638 63.321 45.686 63.319 45.733A0.4 0.4 0 0 1 63.248 45.892M63.799 45.088C63.74 45.175 63.69 45.229 63.646 45.248 63.604 45.268 63.546 45.253 63.475 45.205L61.392 43.804C61.335 43.766 61.307 43.722 61.306 43.674A0.4 0.4 0 0 1 61.393 43.47C61.452 43.383 61.504 43.33 61.549 43.313 61.594 43.295 61.645 43.305 61.701 43.343L63.785 44.744C63.855 44.792 63.89 44.84 63.889 44.887S63.857 45.001 63.799 45.088" data-fill-palette-color="accent"></path><path fill="#cf8e56" d="M49.334 50.202C49.439 50.202 49.511 50.217 49.552 50.244 49.592 50.271 49.612 50.319 49.612 50.388V52.899C49.612 52.985 49.592 53.041 49.552 53.065A0.45 0.45 0 0 1 49.334 53.102V53.223H50.353V53.102C50.248 53.102 50.175 53.09 50.135 53.065S50.075 52.985 50.075 52.899V50.388C50.075 50.32 50.095 50.272 50.135 50.244S50.248 50.202 50.353 50.202V50.082H49.334z" data-fill-palette-color="accent"></path><path fill="#cf8e56" d="M52.873 52.898L51.816 50.082H51.677L50.723 52.898C50.699 52.984 50.665 53.04 50.626 53.064A0.36 0.36 0 0 1 50.445 53.101V53.222H51.464V53.101A0.6 0.6 0 0 1 51.228 53.064C51.193 53.047 51.175 53.016 51.175 52.972 51.175 52.95 51.179 52.925 51.187 52.898L51.881 50.813 52.64 52.898C52.652 52.928 52.657 52.956 52.657 52.979 52.657 53.02 52.639 53.049 52.603 53.064A0.6 0.6 0 0 1 52.363 53.101V53.222H53.15V53.101C53.07 53.101 53.013 53.089 52.979 53.064S52.91 52.984 52.873 52.898" data-fill-palette-color="accent"></path><path fill="#cf8e56" d="M44.364 51.071L45.494 48.829C45.525 48.768 45.564 48.734 45.614 48.728 45.661 48.721 45.732 48.741 45.826 48.788L45.88 48.681 44.97 48.223 44.06 47.764 44.006 47.871C44.1 47.919 44.159 47.963 44.182 48.006S44.203 48.101 44.172 48.162L43.042 50.404C43.003 50.481 42.959 50.521 42.913 50.525A0.45 0.45 0 0 1 42.702 50.461L42.647 50.568 43.557 51.027 44.467 51.485 44.522 51.378C44.428 51.331 44.369 51.287 44.345 51.247 44.318 51.207 44.326 51.148 44.364 51.071M43.822 50.984A0.5 0.5 0 0 1 43.611 50.92 0.46 0.46 0 0 1 43.433 50.788C43.409 50.748 43.415 50.689 43.454 50.612L44.584 48.37C44.615 48.309 44.655 48.276 44.703 48.269S44.822 48.282 44.916 48.33C45.01 48.377 45.069 48.422 45.092 48.465S45.113 48.56 45.082 48.621L43.952 50.863C43.913 50.94 43.869 50.98 43.822 50.984" data-fill-palette-color="accent"></path><path fill="#cf8e56" d="M47.063 49.277L44.943 51.363C44.883 51.428 44.828 51.465 44.781 51.467A0.35 0.35 0 0 1 44.603 51.419L44.548 51.526 45.458 51.985 45.513 51.878A0.6 0.6 0 0 1 45.319 51.738C45.296 51.707 45.294 51.671 45.314 51.632 45.324 51.612 45.337 51.592 45.356 51.57L46.915 50.021 46.656 52.224A0.3 0.3 0 0 1 46.634 52.304C46.615 52.341 46.587 52.358 46.549 52.357A0.6 0.6 0 0 1 46.318 52.282L46.263 52.389 46.966 52.743 47.021 52.636C46.949 52.599 46.903 52.563 46.884 52.526S46.859 52.422 46.864 52.329L47.187 49.339z" data-fill-palette-color="accent"></path><path fill="#cf8e56" d="M38.796 46.741C38.793 46.695 38.827 46.645 38.898 46.596L40.96 45.164C41.016 45.125 41.066 45.115 41.112 45.132S41.211 45.201 41.271 45.287L41.37 45.219 40.789 44.382 40.207 43.545 39.626 42.708 39.527 42.776C39.588 42.862 39.616 42.93 39.617 42.979 39.617 43.027 39.59 43.071 39.533 43.11L37.471 44.542C37.401 44.591 37.344 44.606 37.301 44.587 37.256 44.568 37.205 44.515 37.146 44.429L37.047 44.498 37.628 45.335 38.209 46.172 38.791 47.009 38.89 46.94C38.83 46.854 38.798 46.788 38.796 46.741M38.053 45.379C37.983 45.428 37.925 45.443 37.882 45.424S37.787 45.352 37.727 45.266 37.635 45.114 37.633 45.066C37.631 45.02 37.665 44.971 37.736 44.922L39.798 43.49C39.854 43.451 39.904 43.44 39.949 43.457 39.995 43.475 40.049 43.526 40.109 43.612 40.168 43.698 40.197 43.766 40.198 43.815 40.199 43.863 40.171 43.907 40.115 43.946zM38.634 46.216C38.564 46.265 38.506 46.281 38.463 46.261 38.419 46.242 38.368 46.19 38.309 46.103 38.248 46.017 38.217 45.951 38.215 45.903 38.212 45.856 38.246 45.808 38.317 45.759L40.379 44.327C40.436 44.288 40.486 44.277 40.531 44.294S40.631 44.362 40.689 44.449C40.75 44.535 40.779 44.603 40.779 44.652S40.752 44.744 40.696 44.783z" data-fill-palette-color="accent"></path><path fill="#cf8e56" d="M39.268 47.129C39.184 47.157 39.12 47.163 39.077 47.144A0.36 0.36 0 0 1 38.942 47.017L38.843 47.086 39.424 47.923 39.524 47.854A0.5 0.5 0 0 1 39.42 47.639C39.412 47.6 39.428 47.568 39.465 47.543A0.3 0.3 0 0 1 39.531 47.51L41.64 46.891 40.361 48.704A0.3 0.3 0 0 1 40.304 48.764C40.27 48.787 40.236 48.789 40.203 48.768A0.6 0.6 0 0 1 40.034 48.591L39.935 48.66 40.384 49.307 40.483 49.238C40.438 49.172 40.415 49.118 40.417 49.076 40.417 49.034 40.443 48.972 40.493 48.894L42.204 46.42 42.124 46.306z" data-fill-palette-color="accent"></path><path fill="#cf8e56" d="M37.683 32.29A0.6 0.6 0 0 1 37.891 32.289L39.492 32.449 39.857 33.851C39.871 33.934 39.88 33.996 39.885 34.039S39.871 34.131 39.829 34.185L39.924 34.26 40.414 33.643 40.319 33.569C40.23 33.68 40.161 33.743 40.11 33.757 40.084 33.764 40.063 33.761 40.045 33.747S40.013 33.707 40.002 33.671L39.698 32.46 40.907 32.533C40.941 32.534 40.967 32.543 40.983 32.556 41.004 32.573 41.012 32.597 41.006 32.63A0.54 0.54 0 0 1 40.878 32.866L40.973 32.941 41.607 32.143 41.512 32.068C41.47 32.121 41.425 32.15 41.378 32.156S41.269 32.166 41.195 32.17L39.598 32.049 39.229 30.608A1 1 0 0 1 39.186 30.402 0.23 0.23 0 0 1 39.242 30.263L39.148 30.188 38.658 30.804 38.752 30.879A0.56 0.56 0 0 1 38.96 30.701C38.995 30.688 39.022 30.689 39.042 30.705S39.076 30.748 39.085 30.789L39.393 32.039 38.181 31.927A0.2 0.2 0 0 1 38.093 31.896C38.071 31.878 38.061 31.852 38.067 31.818A0.54 0.54 0 0 1 38.194 31.582L38.1 31.507 37.466 32.305 37.56 32.38A0.23 0.23 0 0 1 37.683 32.29" data-fill-palette-color="accent"></path><path fill="#cf8e56" d="M44.093 27.854L43.793 29.271C43.769 29.35 43.749 29.411 43.734 29.452 43.718 29.494 43.68 29.529 43.619 29.557L43.67 29.665 44.384 29.332 44.333 29.224C44.204 29.284 44.114 29.308 44.062 29.298A0.07 0.07 0 0 1 44.008 29.26 0.14 0.14 0 0 1 44.003 29.172L44.273 27.953 45.322 28.558C45.351 28.575 45.372 28.593 45.381 28.613 45.392 28.637 45.388 28.663 45.368 28.69A0.54 0.54 0 0 1 45.148 28.844L45.199 28.952 46.123 28.522 46.072 28.414C46.01 28.442 45.957 28.447 45.913 28.432A3 3 0 0 1 45.742 28.363L44.368 27.541 44.681 26.087A0.8 0.8 0 0 1 44.735 25.883 0.23 0.23 0 0 1 44.847 25.784L44.796 25.676 44.082 26.009 44.133 26.117A0.6 0.6 0 0 1 44.399 26.05C44.436 26.054 44.46 26.067 44.47 26.09S44.482 26.145 44.471 26.185L44.188 27.442 43.152 26.8A0.2 0.2 0 0 1 43.088 26.733C43.075 26.707 43.079 26.679 43.099 26.652A0.54 0.54 0 0 1 43.319 26.498L43.268 26.39 42.344 26.82 42.395 26.928A0.25 0.25 0 0 1 42.547 26.904 0.7 0.7 0 0 1 42.733 26.997z" data-fill-palette-color="accent"></path><path fill="#cf8e56" d="M45.144 25.688C45.191 25.693 45.233 25.735 45.269 25.813L46.33 28.088C46.358 28.15 46.36 28.202 46.336 28.245 46.312 28.286 46.251 28.33 46.156 28.375L46.207 28.483 47.131 28.052 47.08 27.944C46.984 27.988 46.913 28.006 46.865 27.998 46.816 27.99 46.778 27.955 46.75 27.893L45.689 25.618C45.653 25.54 45.647 25.481 45.673 25.441 45.698 25.401 45.759 25.359 45.855 25.315L45.804 25.207 44.88 25.638 44.931 25.746A0.45 0.45 0 0 1 45.144 25.688" data-fill-palette-color="accent"></path><path fill="#cf8e56" d="M48.904 27.618C48.904 27.595 48.915 27.568 48.936 27.537L49.696 26.546 50.391 27.537C50.411 27.564 50.421 27.59 50.421 27.611 50.421 27.637 50.406 27.659 50.377 27.675A0.55 0.55 0 0 1 50.113 27.722V27.842H52.979V27.722C52.875 27.722 52.801 27.707 52.761 27.68S52.7 27.605 52.7 27.536V25.025C52.7 24.939 52.721 24.883 52.761 24.859S52.874 24.822 52.979 24.822V24.701H50.344V24.822C50.461 24.822 50.551 24.839 50.613 24.873 50.646 24.892 50.662 24.914 50.662 24.94 50.662 24.964 50.648 24.993 50.623 25.025L49.835 26.045 49.168 25.025A0.17 0.17 0 0 1 49.138 24.937C49.138 24.908 49.153 24.884 49.182 24.868A0.55 0.55 0 0 1 49.446 24.822V24.701H48.427V24.822C48.489 24.822 48.538 24.836 48.575 24.863A0.6 0.6 0 0 1 48.705 25.025L49.576 26.378 48.705 27.536A4 4 0 0 1 48.575 27.675C48.544 27.706 48.495 27.722 48.427 27.722V27.842H49.214V27.722C49.072 27.722 48.98 27.706 48.936 27.675 48.915 27.66 48.904 27.642 48.904 27.618M51.683 25.026C51.683 24.94 51.704 24.884 51.743 24.86A0.45 0.45 0 0 1 51.962 24.823C52.066 24.823 52.139 24.835 52.179 24.86S52.24 24.94 52.24 25.026V27.537C52.24 27.605 52.22 27.653 52.179 27.681S52.067 27.723 51.962 27.723 51.784 27.708 51.743 27.681C51.704 27.654 51.683 27.606 51.683 27.537zM50.854 25.026A1 1 0 0 1 50.988 24.864C51.006 24.85 51.037 24.85 51.06 24.843 51.091 24.849 51.14 24.848 51.159 24.86 51.199 24.884 51.219 24.94 51.219 25.026V27.537C51.219 27.605 51.199 27.653 51.159 27.681 51.141 27.693 51.093 27.693 51.062 27.7 51.034 27.692 50.998 27.691 50.979 27.673A4 4 0 0 1 50.854 27.538L49.955 26.213z" data-fill-palette-color="accent"></path></g><path fill="#cf8e56" d="M36.345 59.921V97.75H65.316V59.921zM42.47 93.094V61.542H59.189V93.094z" data-fill-palette-color="accent"></path><g fill="#cf8e56" data-fill-palette-color="accent"><rect x="49.304" y="57.102" fill="#cf8e56" width="0.779" height="22.648" data-fill-palette-color="accent"></rect><rect x="52.059" y="57.102" fill="#cf8e56" width="0.779" height="22.648" data-fill-palette-color="accent"></rect><rect x="50.745" y="56.768" fill="#cf8e56" width="0.78" height="22.482" data-fill-palette-color="accent"></rect></g><path fill="#cf8e56" d="M51.043 77.139C49.287 77.139 47.863 78.97 47.863 81.227 47.863 83.489 49.287 85.319 51.043 85.319 52.797 85.319 54.221 83.489 54.221 81.227 54.221 78.97 52.797 77.139 51.043 77.139M51.084 84.814L53.174 80.925C53.174 80.927 53.355 83.547 51.084 84.814" data-fill-palette-color="accent"></path><path fill="#cf8e56" d="M51.266 31.939C51.449 31.614 51.729 30.938 51.633 29.97 51.493 28.58 51.156 27.617 51.156 27.617S50.816 28.58 50.677 29.97C50.581 30.933 50.83 31.607 50.993 31.935 50.892 31.982 50.812 32.056 50.812 32.164V38.525C50.81 38.525 50.808 38.522 50.804 38.522H46.152A0.15 0.15 0 0 0 46.031 38.585C45.82 38.464 45.33 38.244 44.612 38.313 43.638 38.409 42.962 38.639 42.962 38.639S43.638 38.869 44.612 38.964C45.328 39.034 45.816 38.839 46.029 38.73A0.15 0.15 0 0 0 46.152 38.799H50.804L50.812 38.797C50.812 38.949 50.951 39.074 51.122 39.074 51.294 39.074 51.434 38.949 51.434 38.797V32.163C51.434 32.062 51.359 31.987 51.266 31.939" data-fill-palette-color="accent"></path><path fill="#cf8e56" d="M51.043 37.765A0.86 0.86 0 1 0 51.902 38.625 0.86 0.86 0 0 0 51.043 37.765M51.043 39.191C50.731 39.191 50.475 38.937 50.475 38.625S50.73 38.058 51.043 38.058A0.567 0.567 0 0 1 51.043 39.191" data-fill-palette-color="accent"></path></svg></g></svg></g></svg></g><defs></defs></svg><rect width="353.8080861657006" height="247.2" fill="none" stroke="none" visibility="hidden"></rect></g></svg></g></svg>